<?xml version="1.0" standalone="no"?>
<!DOCTYPE svg PUBLIC "-//W3C//DTD SVG 20010904//EN"
 "http://www.w3.org/TR/2001/REC-SVG-20010904/DTD/svg10.dtd">
<svg version="1.0" xmlns="http://www.w3.org/2000/svg"
 width="300.000000pt" height="201.000000pt" viewBox="0 0 300.000000 201.000000"
 preserveAspectRatio="xMidYMid meet">
<metadata>
Created by potrace 1.10, written by Peter Selinger 2001-2011
</metadata>
<g transform="translate(0.000000,201.000000) scale(0.050000,-0.050000)"
fill="#696969" stroke="none">
<path d="M236 4010 c-4 -5 -4 -44 0 -89 8 -79 10 -81 83 -81 99 0 111 -17 53
-79 -91 -97 -42 -149 128 -136 167 12 167 10 41 -122 l-99 -103 19 -115 c10
-63 19 -117 19 -120 0 -3 36 -5 80 -5 89 0 99 -17 41 -69 -89 -81 -20 -128
171 -116 191 12 191 12 104 -101 -196 -255 -253 -259 -285 -24 l-13 101 -79
-8 c-89 -8 -97 5 -38 68 82 88 22 146 -159 153 l-152 6 114 121 c85 90 109
128 95 150 -10 16 -19 58 -19 94 0 64 -2 65 -90 65 -102 0 -113 20 -40 68 44
29 55 101 21 146 -18 24 -231 27 -231 3 0 -21 21 -26 78 -21 66 7 80 1 92 -36
18 -58 -40 -120 -113 -120 -82 0 -70 -36 14 -44 l71 -6 -71 -78 c-66 -71 -71
-86 -71 -205 l0 -127 70 0 c84 0 91 -33 22 -98 -42 -40 -46 -53 -28 -106 l21
-60 160 14 160 15 -62 -90 c-164 -239 -274 -247 -281 -20 -1 44 -12 65 -32 65
-24 0 -30 -31 -30 -163 0 -157 1 -162 37 -130 94 85 152 23 139 -149 l-6 -88
-85 -6 c-89 -7 -121 -44 -37 -44 74 0 80 -70 10 -129 -63 -53 -75 -91 -28 -91
37 0 37 -19 -1 -69 -37 -49 -40 -180 -4 -158 19 11 19 7 -1 -17 -18 -23 -24
-95 -20 -249 6 -201 8 -213 34 -162 16 30 37 55 48 55 10 0 -5 -31 -34 -69
-55 -73 -66 -123 -29 -135 17 -6 17 -19 0 -51 -46 -85 -30 -267 22 -257 120
25 355 32 355 12 0 -50 -324 -480 -361 -480 -50 0 -50 -33 -1 -59 30 -16 42
-52 53 -156 8 -74 17 -148 20 -165 3 -16 7 -50 7 -75 2 -37 14 -45 64 -45 l61
0 -13 155 c-8 85 -22 193 -32 239 -18 86 25 168 259 484 57 78 79 57 82 -78 1
-38 15 -119 31 -179 l29 -109 -117 -171 c-64 -94 -136 -209 -160 -256 l-43
-85 60 0 c48 0 67 14 93 65 75 146 274 435 300 435 66 0 102 -75 138 -287 36
-212 37 -213 93 -213 46 0 57 9 57 45 0 62 -53 331 -80 408 -21 58 -15 73 76
210 54 81 118 185 142 232 55 109 54 109 81 -47 13 -73 37 -173 53 -222 l31
-90 -131 -256 c-152 -295 -148 -280 -77 -280 50 0 66 22 181 250 187 370 265
346 345 -105 25 -141 27 -145 84 -145 58 0 58 1 45 85 -16 107 -86 372 -108
411 -11 20 5 67 49 142 37 62 91 168 120 237 62 142 77 143 107 7 11 -54 40
-154 64 -222 33 -96 38 -134 21 -167 -12 -24 -66 -144 -120 -268 l-100 -225
56 0 c58 0 81 40 242 416 89 210 203 121 300 -235 l49 -181 84 0 83 0 57 155
c186 513 261 523 426 55 l70 -200 111 -6 112 -6 65 236 c142 507 210 493 454
-94 l54 -130 370 -7 c250 -5 374 0 383 15 21 34 212 38 205 4 -5 -23 18 -25
120 -14 69 8 172 19 228 25 66 7 108 3 117 -11 7 -12 36 -22 63 -22 48 0 48 1
15 51 -46 70 -16 93 115 85 106 -6 108 -7 114 -71 8 -79 111 -99 130 -25 8 32
27 40 92 40 60 0 82 8 82 30 0 24 -30 30 -150 30 l-150 0 2 175 c5 336 61 391
215 211 l83 -96 0 83 c0 47 -12 92 -29 106 -32 27 -21 365 12 378 53 20 13 81
-58 87 -81 6 -102 47 -76 148 13 53 85 66 127 24 19 -19 24 10 24 130 0 124
-6 154 -30 154 -39 0 -42 245 -4 320 23 45 19 54 -40 106 -84 74 -209 250
-187 263 9 6 45 -21 78 -59 34 -39 72 -70 85 -70 17 0 17 -7 1 -27 -17 -20 -9
-39 33 -79 l55 -53 0 68 c0 37 -6 64 -13 60 -22 -14 -63 47 -48 71 10 16 21
16 40 0 21 -17 26 -14 22 13 -4 22 -25 36 -58 38 -28 1 -50 -3 -48 -9 2 -7 -5
-12 -16 -12 -11 0 -18 7 -15 16 4 10 -3 12 -13 5 -11 -6 -25 -3 -32 9 -8 12
25 20 89 20 l101 0 -3 75 c-1 46 -6 58 -11 30 -5 -26 -23 -44 -42 -43 -21 1
-24 5 -9 11 14 6 25 23 25 39 0 16 11 47 25 70 22 36 19 46 -20 72 -56 38 -58
66 -5 66 22 0 40 13 40 30 0 17 -12 30 -26 30 -73 0 -192 168 -180 255 14 105
94 122 163 34 l41 -52 -2 121 c-1 99 -10 128 -49 165 -68 64 -67 177 3 177 70
0 64 53 -8 64 -77 11 -113 -19 -130 -109 -17 -94 -56 -97 -158 -13 -92 75 -81
98 47 98 95 0 99 2 99 55 0 30 9 68 18 83 13 20 -5 45 -64 90 -119 91 -117
112 10 112 l108 0 20 76 c36 133 -129 248 -305 212 -100 -20 -119 -129 -33
-197 89 -71 84 -82 -36 -74 l-103 7 11 68 c10 58 3 73 -47 109 -71 50 -74 73
-14 85 25 5 14 5 -25 0 -38 -5 -116 -13 -171 -19 -131 -13 -181 -99 -97 -165
67 -53 61 -62 -42 -62 -91 0 -109 19 -71 78 12 21 3 40 -31 67 -69 54 -60 75
32 75 52 0 80 9 80 26 0 18 -29 24 -95 22 -72 -4 -94 -12 -90 -35 5 -23 -24
-33 -125 -44 -258 -27 -200 -189 67 -189 157 0 157 0 122 -126 -21 -75 -19
-79 72 -177 110 -118 115 -108 -66 -126 -163 -15 -172 -4 -119 146 34 96 -168
316 -271 295 -34 -7 -63 -15 -64 -17 -69 -192 -73 -219 -43 -242 38 -29 152
-174 152 -193 0 -8 -69 -21 -154 -28 -119 -11 -160 -23 -181 -53 -32 -46 -90
-51 -123 -11 -26 31 8 52 87 52 37 0 48 14 58 75 7 41 25 99 41 128 26 50 24
57 -19 98 -26 24 -72 80 -102 123 -78 112 -180 106 -220 -14 -14 -44 -35 -96
-47 -115 -16 -28 -2 -60 70 -157 115 -157 118 -151 -70 -168 -222 -20 -223
-18 -131 184 41 88 44 108 20 121 -32 19 -149 196 -149 227 0 14 54 16 161 7
177 -16 262 24 182 85 -45 34 -70 32 -56 -3 6 -17 3 -35 -8 -42 -10 -6 -19 -1
-19 12 0 13 -14 18 -31 11 -19 -7 -26 -3 -18 9 8 14 -30 19 -114 15 -116 -5
-127 -10 -123 -49 3 -23 -6 -42 -20 -42 -64 3 -94 -7 -94 -30 0 -14 -26 -75
-57 -136 l-56 -112 51 -62 c60 -71 132 -201 120 -214 -5 -4 -91 -16 -193 -25
-218 -21 -217 -22 -120 174 l65 130 -85 129 c-110 167 -116 159 110 165 173 5
194 10 189 41 -4 25 8 35 42 35 37 0 52 16 69 70 26 86 -1 110 -47 40 l-33
-51 -48 52 c-66 72 -99 43 -47 -41 23 -37 34 -71 26 -76 -26 -15 -346 -38
-346 -25 0 7 14 45 30 84 17 40 30 80 30 89 0 35 -64 -10 -82 -58 l-20 -51
-62 68 c-81 89 -99 46 -27 -64 34 -51 64 -76 82 -69 17 6 29 -1 29 -19 0 -16
-12 -29 -27 -29 -49 0 -213 -305 -183 -340 37 -43 156 -261 147 -268 -4 -4
-70 -16 -147 -27 l-140 -20 155 -2 c85 -2 155 -8 155 -14 0 -6 -19 -48 -42
-95 -162 -322 -217 -336 -337 -84 -99 209 -91 268 71 484 30 39 40 68 28 76
-12 7 -52 75 -91 151 -83 167 -71 165 -149 24 -36 -63 -88 -140 -116 -170 -28
-30 -41 -55 -28 -55 13 0 60 -72 103 -159 l80 -159 -82 -156 c-173 -325 -230
-327 -339 -9 -46 131 -37 142 117 143 58 0 105 8 105 17 0 9 -54 14 -120 12
-74 -3 -120 4 -120 17 0 26 115 233 155 279 28 31 28 39 1 70 -17 19 -47 79
-67 133 -21 55 -52 102 -71 107 -20 5 -31 21 -24 37 14 37 46 36 46 -1 0 -22
18 -26 75 -17 100 16 108 26 18 26 -88 0 -89 7 -14 125 72 114 47 143 -36 43
l-59 -73 -31 60 c-69 133 -114 98 -54 -43 49 -113 43 -117 -175 -109 -155 5
-174 2 -181 -31 -6 -34 6 -35 187 -21 l194 14 -25 -47 c-14 -27 -61 -96 -104
-154 -54 -74 -72 -114 -58 -130 20 -25 103 -232 103 -259 0 -8 -89 -15 -198
-15 -136 0 -204 -8 -218 -26 -48 -57 2 -70 204 -51 246 22 240 32 107 -178
-158 -248 -222 -234 -297 64 -21 84 -29 94 -71 85 -50 -9 -82 14 -48 35 10 7
14 25 8 42 -19 48 -370 41 -414 -8 -51 -56 -23 -106 54 -94 182 27 313 32 313
11 0 -51 -215 -320 -254 -320 -54 1 -126 147 -126 254 0 47 -5 49 -80 36 -91
-15 -97 -8 -38 47 26 25 33 44 20 52 -56 34 -22 75 56 68 70 -7 83 -1 114 51
19 32 65 93 102 134 l68 75 -40 116 c-35 106 -45 118 -100 123 -66 7 -76 22
-39 59 56 56 2 85 -159 85 -171 0 -233 -32 -212 -111 9 -36 24 -39 173 -32
l162 8 -62 -78 c-33 -42 -83 -97 -110 -122 l-48 -46 37 -112 c52 -152 49 -154
-135 -149 -199 6 -195 -1 -71 141 88 101 101 126 83 159 -12 22 -21 66 -21
100 0 61 -26 93 -59 73 -11 -7 -7 -51 10 -109 l29 -98 -65 -75 c-158 -184
-163 -185 -191 -44 l-21 105 103 105 c71 73 92 105 68 105 -45 0 -43 26 5 69
78 71 17 131 -132 131 -147 0 -150 7 -59 106 91 99 31 101 -70 2 -82 -80 -107
-78 -124 9 -11 51 -56 94 -78 73z m4451 -141 c-7 -18 4 -43 25 -59 21 -16 28
-29 16 -29 -33 -1 -94 74 -79 98 21 33 51 25 38 -10z m-4040 -118 c16 -43 -63
-91 -151 -91 -80 0 -104 44 -52 96 35 35 189 31 203 -5z m470 10 c23 -1 23 -7
3 -31 -26 -32 -240 -44 -240 -14 0 42 55 66 130 56 44 -5 92 -10 107 -11z
m2627 -216 c27 -22 25 -36 -17 -119 -26 -51 -47 -105 -47 -119 0 -54 -38 -25
-113 86 l-77 112 57 120 58 120 54 -87 c30 -49 68 -99 85 -113z m434 81 l82
-105 -35 -110 c-39 -124 -64 -136 -115 -56 -19 30 -56 78 -82 105 l-47 51 43
115 c49 135 47 135 154 0z m1241 81 c5 -5 -1 -46 -13 -92 l-23 -83 89 -78 c80
-70 122 -138 64 -101 -26 16 -143 13 -201 -5 -20 -6 -35 -30 -35 -55 0 -97
-63 -115 -150 -43 -71 58 -47 89 72 90 125 0 128 156 6 281 -49 50 -84 96 -79
101 12 12 256 -2 270 -15z m-2195 -294 c-23 -46 -50 -105 -60 -132 -18 -49
-19 -48 -73 40 -31 49 -66 107 -80 128 -21 33 -14 56 45 155 l69 117 70 -112
70 -113 -41 -83z m1316 197 c-25 -77 107 -289 141 -226 51 94 43 156 -29 228
-40 40 -72 82 -72 94 0 13 40 -22 89 -77 49 -54 86 -110 81 -123 -4 -13 -14
-55 -21 -95 -18 -98 -60 -90 -164 28 -90 103 -89 96 -31 261 23 65 29 -21 6
-90z m484 4 c-19 -66 -15 -75 58 -146 42 -41 74 -79 69 -83 -4 -5 -45 29 -90
74 -82 82 -86 100 -49 219 19 60 30 1 12 -64z m-2740 -158 c-6 -24 -147 -240
-153 -233 -3 4 -28 58 -56 120 l-51 113 82 116 82 115 50 -108 c27 -60 47
-115 46 -123z m433 107 l46 -96 -50 -74 c-28 -41 -55 -85 -62 -99 -9 -19 -13
-19 -22 0 -7 14 -33 56 -60 95 l-48 71 63 100 c75 122 75 122 133 3z m-1451
-23 l36 -101 -94 -119 c-114 -146 -113 -146 -156 -10 l-34 111 93 109 c114
134 111 134 155 10z m-1123 -64 c-78 -73 -113 -236 -49 -236 61 0 180 184 166
258 -8 45 -8 82 0 82 65 0 37 -168 -45 -260 -112 -130 -170 -134 -179 -15 -6
82 145 300 183 263 6 -6 -28 -47 -76 -92z m5107 19 c-7 -25 -18 -61 -23 -80
-20 -74 -42 -31 -22 45 11 44 28 80 39 80 10 0 13 -20 6 -45z m-470 -213 c0
-48 -28 -82 -69 -82 -48 0 -120 64 -98 87 21 20 167 16 167 -5z m807 -39 c41
-43 52 -70 43 -106 -28 -110 -276 2 -255 114 15 74 138 70 212 -8z m-501 -19
c64 -70 23 -124 -83 -111 -106 13 -171 63 -152 113 19 49 191 47 235 -2z
m-521 -12 c65 -50 22 -92 -93 -92 -162 0 -220 92 -67 105 47 5 94 9 105 11 11
1 36 -9 55 -24z m-845 -13 c0 -29 -54 -46 -95 -29 -32 13 -32 16 5 31 56 23
90 22 90 -2z m349 -41 c-6 -10 -75 -18 -154 -18 -165 0 -164 25 2 41 123 11
169 5 152 -23z m725 -21 c65 -62 58 -77 -35 -77 -83 0 -114 31 -92 90 17 43
73 37 127 -13z m552 -13 c73 -76 69 -84 -45 -84 -110 0 -128 15 -109 89 17 69
85 67 154 -5z m545 -25 l79 -81 -130 6 c-125 6 -130 8 -125 56 14 128 65 133
176 19z m-1635 37 c41 -41 27 -56 -56 -56 -44 0 -80 7 -80 16 0 27 46 64 80
64 18 0 43 -11 56 -24z m-3837 -33 c32 -62 -50 -123 -166 -123 -115 0 -140 39
-72 111 59 63 206 70 238 12z m3301 19 c0 -24 -54 -43 -86 -31 -16 7 -38 -28
-63 -101 -99 -291 -166 -298 -309 -30 -91 170 -93 168 136 152 131 -9 203 -6
212 7 15 26 110 28 110 3z m-2769 -24 c24 -39 -28 -65 -148 -74 -125 -9 -166
14 -122 67 29 35 249 41 270 7z m529 4 c0 -21 -255 -54 -273 -36 -6 6 -5 21 2
33 16 26 271 28 271 3z m2632 -29 c11 -30 -65 -246 -93 -264 -51 -31 -279 193
-279 273 0 31 360 22 372 -9z m521 -85 c-29 -208 -107 -222 -248 -44 -111 141
-107 148 96 139 l164 -6 -12 -89z m465 72 l88 0 -12 -100 c-22 -184 -85 -193
-222 -33 -114 134 -118 162 -17 146 41 -7 115 -13 163 -13z m607 -48 c18 -25
-1 -173 -25 -199 -41 -43 -282 175 -250 226 16 26 255 2 275 -27z m-1988 -37
c23 -36 66 -91 95 -123 l55 -57 -36 -93 c-19 -50 -44 -122 -54 -158 l-20 -67
-100 144 -101 143 52 115 c29 64 52 126 52 139 0 36 14 26 57 -43z m523 47 c0
-10 41 -63 91 -119 l91 -101 -34 -106 c-19 -58 -37 -118 -41 -133 -11 -43 -38
-21 -136 114 l-93 126 33 94 c18 51 37 104 41 118 8 28 48 34 48 7z m-976
-208 l40 -55 -67 -157 -67 -158 -61 113 c-33 62 -72 131 -86 153 -22 34 -15
59 48 176 l73 136 40 -76 c23 -42 59 -101 80 -132z m1620 98 c89 -98 94 -108
76 -173 -10 -38 -23 -94 -30 -124 -15 -76 -55 -69 -118 22 -30 43 -75 98 -101
122 -45 42 -46 49 -19 112 15 37 28 86 28 108 0 70 64 43 164 -67z m550 -17
c82 -84 99 -113 85 -145 -9 -22 -17 -65 -18 -95 -2 -92 -79 -72 -187 47 -80
88 -89 107 -73 151 10 27 19 72 19 98 0 79 61 59 174 -56z m-3830 -297 c-32
-48 -75 -115 -94 -147 l-36 -59 -53 149 c-53 147 -53 150 -16 199 21 28 65 93
99 145 l62 95 49 -147 48 -147 -59 -88z m535 297 c13 -47 38 -106 54 -131 28
-44 24 -57 -55 -195 -76 -133 -118 -169 -118 -103 0 13 -22 71 -49 129 l-49
104 84 140 c99 165 101 165 133 56z m546 -53 l54 -115 -65 -121 -64 -122 -66
121 -66 120 48 73 c27 40 55 93 62 117 21 66 36 55 97 -73z m-1616 -29 l34
-128 -104 -142 c-105 -144 -139 -171 -139 -110 0 19 -15 80 -33 137 l-32 104
107 132 c132 162 124 162 167 7z m-559 2 c8 -47 22 -98 31 -115 11 -21 -16
-64 -98 -150 -137 -145 -162 -155 -165 -66 -1 36 -8 89 -16 116 -12 42 3 70
97 174 133 149 134 149 151 41z m4096 -40 c56 -42 195 -242 179 -257 -8 -8
-93 -18 -189 -21 -161 -7 -175 -10 -185 -52 -15 -56 -73 -59 -121 -5 -35 39
-35 40 18 40 89 0 126 32 140 121 26 166 84 229 158 174z m645 -102 c119 -137
106 -153 -132 -153 -128 0 -174 -92 -89 -180 64 -67 63 -80 -5 -80 -126 1
-184 53 -125 112 14 14 4 36 -30 68 -71 67 -63 80 50 80 l100 0 0 71 c0 216
86 247 231 82z m-1146 22 c168 -211 169 -205 -31 -233 -240 -33 -240 -33 -223
43 61 283 135 339 254 190z m1685 -15 c116 -118 113 -123 -63 -127 l-137 -3 5
70 c14 193 52 205 195 60z m-2855 31 c19 -16 183 -339 176 -347 -5 -4 -97 -15
-205 -23 l-196 -15 205 -3 c113 -2 205 -10 204 -18 0 -8 -48 -111 -107 -229
-58 -118 -99 -221 -90 -230 18 -19 238 -506 238 -528 0 -8 -61 -24 -135 -37
-347 -57 -349 -58 -100 -56 286 2 270 20 187 -207 -190 -523 -255 -538 -414
-90 -35 100 -76 205 -90 233 -26 53 123 531 205 656 27 42 27 50 -1 81 -17 18
-54 96 -83 173 -28 76 -68 167 -88 202 -21 35 -30 71 -20 80 9 9 50 85 90 167
102 208 152 251 224 191z m652 -128 c118 -174 119 -173 -141 -193 -228 -17
-218 -26 -154 132 29 70 61 149 70 174 35 91 114 51 225 -113z m-1090 -71 l87
-178 -51 -102 c-27 -56 -73 -152 -101 -213 -28 -60 -69 -130 -92 -154 l-41
-45 42 -57 c23 -31 81 -166 130 -298 l87 -242 -99 -246 c-215 -531 -295 -537
-430 -29 -63 237 -72 225 176 243 244 17 214 45 -52 48 -157 1 -178 -3 -187
-36 -16 -62 -102 -51 -90 11 8 40 19 48 59 40 53 -10 98 71 217 384 27 71 58
139 68 152 13 16 10 45 -11 87 -37 73 -112 315 -116 373 -3 36 15 42 187 60
l190 20 -185 6 c-102 3 -185 11 -185 17 0 9 40 80 175 303 58 98 125 54 222
-144z m-1190 93 c17 -41 42 -118 55 -170 22 -91 26 -95 92 -95 40 0 63 -8 56
-20 -7 -11 -34 -20 -60 -20 -26 0 -53 9 -60 20 -7 11 -104 20 -221 20 -115 0
-209 5 -209 11 0 14 155 247 196 294 52 60 114 44 151 -40z m571 -10 c21 -47
54 -123 73 -169 23 -56 48 -86 77 -90 23 -4 -75 -4 -218 0 -310 9 -288 -6
-199 137 41 64 86 137 102 162 48 77 121 59 165 -40z m-1171 35 c34 -34 82
-239 64 -269 -11 -17 -348 -7 -369 11 -20 18 221 288 257 288 10 0 32 -14 48
-30z m4885 -138 c-6 -27 -16 -60 -22 -75 -5 -15 25 -52 70 -85 89 -66 87 -92
-6 -92 -131 1 -159 18 -149 97 7 59 -2 80 -49 119 -81 68 -70 84 56 84 109 0
112 -2 100 -48z m105 -29 c-4 -42 9 -71 54 -112 l59 -54 -76 54 c-47 34 -72
66 -65 84 6 15 11 41 11 57 0 15 5 28 12 28 6 0 8 -26 5 -57z m-333 -9 c52
-42 62 -134 16 -134 -9 0 -12 18 -6 40 12 46 -23 97 -83 121 -25 10 -30 17
-11 17 17 0 54 -19 84 -44z m-800 -8 c-98 -19 -42 -75 86 -88 l120 -11 -112
-4 c-86 -2 -120 6 -145 33 -39 44 -10 86 56 81 36 -2 35 -4 -5 -11z m-750 -46
c-6 -22 -2 -45 8 -51 34 -22 -1 -44 -53 -34 -32 6 -48 20 -41 37 6 15 0 33
-13 41 -15 9 -9 19 16 29 70 27 94 21 83 -22z m416 0 c0 -19 -22 -32 -60 -34
-33 -3 -46 0 -30 6 84 31 84 37 0 50 l-90 13 90 -2 c65 -2 90 -11 90 -33z
m-240 0 c-57 -15 -58 -15 -10 -20 38 -3 41 -7 14 -14 -20 -5 -50 -4 -66 2 -50
19 -11 52 58 50 l64 -3 -60 -15z m-3610 -34 c0 -72 -164 -137 -188 -74 -28 74
-14 88 88 88 55 0 100 -6 100 -14z m4052 -21 c34 -33 31 -35 -56 -41 l-92 -6
-33 -132 c-18 -73 -45 -162 -61 -199 -27 -64 -25 -71 43 -172 78 -115 187
-322 187 -354 0 -24 -433 -30 -446 -6 -12 20 72 363 103 420 21 40 17 56 -33
130 -70 104 -184 305 -184 324 0 8 95 12 212 8 184 -6 213 -2 231 28 24 45 84
45 129 0z m-3515 -2 c23 -3 23 -9 3 -33 -28 -34 -111 -40 -130 -10 -20 32 5
55 55 50 25 -3 57 -6 72 -7z m-218 -56 c40 -38 -45 -77 -176 -83 -153 -6 -173
9 -109 81 32 35 248 37 285 2z m3001 20 c0 -23 -99 -287 -131 -348 -29 -56
-28 -64 9 -117 75 -105 223 -429 204 -448 -10 -10 -73 -15 -140 -11 -67 4
-122 1 -122 -6 0 -7 -54 -19 -120 -27 -66 -8 -125 -22 -131 -32 -6 -10 -31
-17 -55 -16 -38 1 -35 5 17 28 56 25 66 44 106 204 24 97 65 218 90 270 26 52
40 102 31 110 -15 17 -218 387 -218 399 0 4 104 7 230 7 127 0 230 -6 230 -13z
m-2400 -25 c0 -20 -295 -54 -313 -36 -6 6 -5 21 2 33 16 26 311 29 311 3z
m3438 -1 l128 -1 -12 -115 c-33 -307 -102 -327 -264 -75 -128 198 -132 212
-45 201 36 -4 123 -9 193 -10z m-2830 -106 c-242 -485 -284 -488 -405 -31 -10
40 -16 77 -12 81 4 4 -25 3 -65 -2 -52 -6 -67 -2 -56 16 10 17 49 21 127 13
62 -7 176 -4 253 5 233 29 218 37 158 -82z m1992 -75 c55 -91 100 -171 100
-176 0 -21 -78 93 -142 205 -66 119 -67 119 -79 60 -7 -32 -22 -78 -35 -101
-12 -24 -17 -48 -10 -55 7 -7 1 -13 -13 -13 -14 0 -21 11 -16 25 5 14 25 73
44 131 19 59 39 103 43 99 4 -4 53 -83 108 -175z m612 0 c57 -88 94 -154 83
-147 -10 6 -60 76 -111 154 l-91 142 -17 -60 c-9 -32 -20 -77 -24 -99 -4 -22
-22 -71 -40 -110 -34 -74 -33 -64 24 155 41 160 53 157 176 -35z m647 135 c21
-20 24 -20 13 0 -11 19 22 25 140 25 l154 0 -12 -139 c-6 -76 -21 -156 -32
-177 -16 -31 -11 -48 29 -85 60 -56 209 -282 209 -317 0 -18 -26 -24 -90 -19
-49 4 -90 0 -90 -8 0 -8 -39 -15 -87 -15 -87 0 -88 -1 -100 -78 -18 -108 -82
-125 -158 -42 -81 89 -51 120 118 120 44 0 47 8 47 106 0 58 12 152 27 209 26
101 25 105 -22 149 -48 45 -205 263 -205 285 0 19 31 12 59 -14z m-4859 -73
c0 -29 -20 -39 -95 -48 -122 -13 -129 -4 -49 68 71 64 144 54 144 -20z m590
38 c0 -21 -26 -32 -89 -36 l-90 -7 39 43 c43 48 140 48 140 0z m2409 -135 l80
-154 -47 -120 c-26 -67 -58 -169 -72 -228 -30 -129 -33 -126 -147 133 l-90
205 79 171 c91 196 90 196 197 -7z m1755 123 c20 -28 74 -100 121 -159 47 -60
85 -113 85 -119 0 -15 -122 127 -189 220 -32 44 -61 84 -66 89 -4 6 -16 -3
-26 -20 -15 -24 -18 -23 -19 6 0 52 53 42 94 -17z m-3714 24 c0 -15 -203 -338
-250 -399 -43 -56 -43 -56 -6 -132 21 -42 53 -150 72 -239 l33 -162 76 0 c79
0 94 -19 45 -60 -21 -18 -24 -34 -10 -61 23 -42 15 -49 -75 -68 -71 -16 -91
22 -36 68 23 19 24 34 6 75 -24 51 -24 51 -241 42 -271 -11 -272 -11 -127 231
118 199 161 249 182 214 17 -27 -6 -65 -30 -50 -10 6 -14 -2 -7 -18 6 -16 23
-27 39 -25 37 5 63 32 31 32 -13 0 -19 9 -12 20 6 10 -6 44 -29 75 -41 56
-100 273 -101 369 0 57 11 60 290 83 44 3 96 8 115 10 19 1 35 -1 35 -5z m729
-147 c18 -74 45 -156 59 -181 25 -48 21 -64 -85 -284 l-24 -50 11 50 c7 28 14
59 17 70 3 11 21 50 41 87 35 66 34 71 -19 237 l-54 170 -95 -177 c-89 -166
-93 -181 -68 -237 14 -33 43 -118 63 -190 l37 -130 33 60 c19 33 33 51 33 40
0 -11 -16 -51 -36 -89 l-37 -69 -33 119 c-18 66 -51 166 -74 224 l-42 105 60
95 c34 52 81 138 106 190 60 123 67 121 107 -40z m-628 49 c0 -24 20 -102 45
-174 l44 -130 -110 -215 c-131 -255 -124 -252 -168 -70 -19 80 -46 172 -60
205 -23 55 -20 67 39 150 35 49 89 137 120 194 59 105 88 118 90 40z m1259
-146 c49 -99 50 -103 15 -160 -38 -63 -49 -51 -13 15 16 31 12 59 -17 123 -20
46 -47 107 -58 134 -21 48 -23 46 -84 -74 -34 -67 -71 -129 -83 -136 -14 -8
-13 -26 1 -56 20 -42 20 -42 -9 -6 -28 34 -27 43 7 91 21 29 62 106 92 172
l55 119 22 -60 c12 -33 44 -106 72 -162z m-2040 116 c-229 -407 -376 -437
-356 -74 l6 120 130 12 c72 6 160 13 196 15 l67 3 -43 -76z m171 -19 c7 -41
26 -126 41 -189 l28 -113 -63 -97 c-35 -53 -72 -105 -83 -116 -26 -27 21 63
79 150 43 66 44 75 18 170 -15 55 -34 136 -41 180 l-14 80 -38 -74 c-21 -40
-49 -80 -63 -89 -15 -9 -13 4 7 34 17 27 42 69 56 94 34 65 58 55 73 -30z
m-611 -54 c0 -38 9 -113 21 -167 21 -98 -23 -206 -127 -314 -26 -27 22 64 81
153 42 65 45 82 27 150 -12 42 -22 111 -22 152 0 79 -14 91 -60 50 -24 -21
-24 -20 -2 10 45 58 82 43 82 -34z m4714 -31 c-19 -51 -16 -67 21 -115 61 -77
206 -305 194 -305 -5 0 -50 61 -99 135 -49 74 -104 155 -121 179 -33 45 -25
166 11 166 9 0 6 -27 -6 -60z m-1234 -20 c-17 -32 -3 -74 77 -228 l97 -188 24
103 c13 57 33 117 44 133 19 25 20 25 11 -4 -6 -19 -22 -89 -36 -155 -32 -155
-28 -157 -153 89 -101 198 -121 290 -62 290 12 0 11 -15 -2 -40z m1854 -13
c-8 -7 16 -54 52 -105 127 -177 121 -186 -12 -19 -76 97 -91 137 -51 137 13 0
18 -6 11 -13z m-4886 -32 c-9 -14 -37 -54 -63 -89 l-49 -65 41 -173 c45 -192
54 -209 73 -150 7 23 21 42 32 42 10 0 5 -27 -12 -60 -48 -93 -88 -68 -91 57
-1 29 -17 103 -36 163 l-35 110 70 95 c66 89 103 126 70 70z m4157 -70 c71
-75 236 -347 223 -368 -6 -9 -53 -17 -104 -17 -221 -1 -300 -21 -322 -83 -25
-71 -105 -78 -150 -14 -42 60 -24 77 79 77 86 0 89 2 89 61 0 62 56 356 73
384 18 29 60 14 112 -40z m-217 -10 c-8 -25 -25 -103 -37 -173 -26 -157 -50
-169 -108 -57 -24 47 -33 68 -19 48 83 -120 94 -128 97 -63 4 107 49 290 72
290 5 0 3 -20 -5 -45z m620 -60 c-15 -122 -42 -168 -37 -65 1 39 8 76 16 83 7
8 13 30 13 50 0 21 5 37 11 37 6 0 4 -47 -3 -105z m-3499 -80 c74 -199 131
-423 111 -443 -26 -26 -39 -10 -47 62 -4 33 -14 72 -23 86 -14 23 -28 83 -34
154 -2 13 -11 19 -21 13 -10 -6 -15 5 -11 26 4 27 -7 36 -42 37 -27 0 -52 11
-57 24 -5 15 8 21 33 16 23 -4 47 2 55 14 8 14 4 16 -13 6 -19 -12 -23 -7 -14
16 7 18 5 37 -5 43 -19 12 -88 -84 -88 -123 0 -14 -8 -26 -18 -26 -9 0 -12 -9
-5 -20 7 -11 1 -20 -12 -20 -14 0 -19 -6 -12 -13 7 -6 -1 -37 -17 -69 -33 -64
-39 -103 -8 -58 17 25 20 23 16 -10 -8 -65 24 -141 45 -108 10 16 17 37 17 48
0 11 -7 8 -16 -6 -10 -16 -16 -3 -16 37 0 60 1 61 24 18 17 -33 26 -38 34 -17
5 15 9 4 7 -25 -1 -29 -9 -49 -17 -44 -8 5 -15 1 -15 -10 0 -10 41 -17 91 -14
49 3 94 -1 99 -9 5 -9 -85 -17 -200 -19 -248 -4 -240 -21 -108 244 154 308
208 347 267 190z m826 -62 l38 -96 27 86 c24 78 60 145 60 113 0 -37 -88 -234
-101 -226 -8 6 -29 48 -45 95 -16 47 -37 103 -45 125 -10 28 -8 34 7 20 12
-11 38 -63 59 -117z m-2118 36 c12 -26 33 -125 46 -219 l25 -170 96 0 c106 0
115 -12 55 -76 -59 -63 -118 -57 -145 16 -22 58 -27 60 -148 60 -107 0 -126 5
-124 35 1 21 5 25 11 10 6 -14 27 -25 48 -25 25 0 34 10 27 29 -6 16 -2 45 10
65 12 21 21 25 21 10 1 -15 10 -21 21 -14 11 7 14 -2 7 -21 -10 -26 -16 -27
-31 -6 -13 20 -16 16 -12 -13 4 -27 25 -42 64 -47 52 -6 56 -2 43 40 -7 26
-15 80 -17 120 -2 41 -11 69 -21 63 -9 -6 -12 6 -6 26 6 21 -2 61 -17 88 -16
28 -29 38 -29 24 -1 -15 -10 -21 -21 -14 -12 7 -14 -2 -6 -22 9 -26 6 -30 -14
-18 -20 12 -23 8 -14 -16 7 -20 3 -32 -9 -29 -12 3 -27 -8 -32 -23 -7 -18 -2
-22 15 -12 17 11 21 8 12 -7 -8 -13 -21 -20 -28 -15 -8 4 -26 -5 -40 -20 -14
-15 -20 -28 -14 -28 11 0 -8 -26 -66 -91 -15 -16 -21 -38 -14 -49 7 -11 -7
-20 -30 -20 -28 0 -38 8 -28 25 18 31 227 337 249 366 31 39 93 27 116 -22z
m1228 -58 c19 3 30 -2 24 -12 -6 -10 4 -43 23 -73 l33 -56 -43 50 c-28 32 -42
39 -40 20 5 -56 -2 -82 -21 -71 -10 6 -24 -8 -32 -32 l-14 -44 -27 49 c-15 26
-27 35 -27 20 -1 -16 -6 -24 -12 -17 -7 6 6 47 29 91 22 43 34 87 26 96 -8 9
0 7 16 -5 17 -12 46 -19 65 -16z m4281 -149 c-4 -81 -28 -121 -74 -122 -23 0
-172 155 -172 180 0 17 124 36 210 32 34 -2 39 -14 36 -90z m-4208 -53 c51
-87 52 -89 2 -79 -22 4 -40 1 -40 -8 0 -18 -59 -21 -61 -4 -1 7 -5 36 -9 66
-6 44 0 52 33 45 29 -5 37 1 29 22 -19 51 3 31 46 -42z m3951 -16 c49 -53 60
-81 55 -140 l-6 -73 -124 0 c-228 0 -338 248 -118 265 52 4 102 9 113 11 10 2
46 -26 80 -63z m-1733 -8 c-4 -24 -25 -35 -65 -35 -65 0 -93 42 -37 56 79 20
109 14 102 -21z m1087 -32 c20 -28 29 -66 22 -100 l-10 -55 -143 13 c-219 21
-302 157 -105 174 184 17 202 15 236 -32z m-645 -20 c55 -67 9 -86 -154 -64
-161 22 -212 41 -193 72 19 31 320 23 347 -8z m-438 -41 c0 -5 5 -23 12 -40
10 -26 -2 -32 -60 -32 -68 0 -95 31 -59 67 15 14 107 18 107 5z m1378 -70 c81
-102 81 -102 -58 -102 -101 0 -120 6 -120 35 1 94 26 129 103 143 8 1 41 -33
75 -76z m-690 9 c54 -83 42 -98 -65 -85 l-98 12 -24 -152 c-73 -451 -126 -462
-328 -70 -75 147 -131 272 -124 279 11 11 320 -24 424 -48 32 -8 47 1 58 36
28 90 107 104 157 28z m-4212 -43 c3 -23 -8 -53 -25 -67 -21 -18 -31 -19 -31
-3 0 12 9 22 20 22 33 0 23 56 -15 80 -32 20 -32 21 5 16 23 -4 43 -24 46 -48z
m3375 -41 c-60 -400 -195 -580 -300 -401 -56 97 -211 444 -211 475 0 11 110
19 262 19 l263 0 -14 -93z m-1971 -8 c0 -21 -224 -455 -275 -534 -82 -125
-150 -33 -224 305 -47 216 -58 203 189 226 284 26 310 26 310 3z m-1210 -39
c7 -22 7 -49 0 -60 -7 -12 10 -16 44 -10 111 19 370 50 418 50 l49 0 -43 -85
c-256 -505 -407 -548 -452 -129 l-16 144 -95 6 c-108 7 -112 13 -52 78 55 57
130 61 147 6z m3500 -360 c49 -78 52 -93 31 -158 -12 -40 -43 -157 -69 -262
l-46 -190 -132 274 c-130 268 -132 275 -104 342 15 37 43 130 61 206 18 76 37
151 41 166 5 15 44 -44 86 -132 43 -88 102 -198 132 -246z m948 388 l62 -13 0
-142 c0 -393 -118 -391 -355 5 -47 79 -85 147 -85 152 0 14 304 12 378 -2z
m697 -27 l65 -1 0 -155 c-1 -352 -93 -343 -357 33 -98 140 -92 149 87 135 77
-7 169 -12 205 -12z m-1123 -86 c18 -36 81 -134 140 -219 l108 -155 -28 -107
c-16 -59 -35 -168 -42 -242 -18 -161 -36 -161 -126 -1 -37 65 -100 167 -140
228 l-74 111 34 150 c19 83 40 184 46 225 14 92 39 95 82 10z m-1295 -176
l106 -221 -60 -194 c-34 -107 -72 -233 -85 -280 -30 -103 -36 -97 -108 106
-31 88 -78 204 -105 258 l-48 97 50 113 c27 61 65 164 85 227 46 148 40 152
165 -106z m2059 76 c46 -69 111 -156 145 -194 34 -38 56 -81 49 -97 -6 -16
-16 -109 -23 -207 -17 -229 -42 -230 -187 -5 -60 93 -130 188 -154 211 -35 33
-40 51 -25 90 11 27 25 112 32 188 17 180 50 183 163 14z m-2805 -40 c19 -58
57 -148 84 -199 37 -69 45 -102 30 -120 -12 -15 -57 -116 -101 -226 -46 -114
-85 -187 -91 -170 -6 17 -21 70 -34 120 -12 50 -47 136 -77 192 l-55 102 47
67 c25 37 70 129 99 203 64 163 56 160 98 31z m2542 -300 c105 -111 284 -405
261 -427 -12 -13 -353 -67 -419 -68 -67 0 -75 112 -26 369 43 221 74 243 184
126z m-767 20 c45 -34 294 -452 294 -495 0 -39 -136 -60 -385 -60 l-140 0 14
95 c54 371 127 527 217 460z"/>
<path d="M3578 3602 c-32 -54 -32 -54 27 -46 l58 9 -53 -56 -52 -57 46 -25
c65 -36 69 -34 103 33 16 33 23 60 15 60 -9 0 -38 31 -64 68 l-49 69 -31 -55z"/>
<path d="M4053 3602 l-35 -81 66 -90 c70 -94 96 -111 96 -60 0 17 14 57 30 89
29 57 28 60 -46 140 l-75 82 -36 -80z"/>
<path d="M3151 3561 c-7 -10 -24 -15 -38 -9 -39 15 -95 -57 -72 -92 16 -25 22
-26 37 -3 14 23 21 21 39 -10 28 -47 30 -17 2 34 -12 23 -13 39 -2 39 23 0 48
-95 32 -121 -6 -10 -2 -19 10 -19 11 0 21 11 21 23 0 13 13 38 28 55 25 28 24
38 -8 77 -20 25 -43 37 -49 26z"/>
<path d="M2162 3584 c-11 -21 -14 -46 -6 -55 8 -8 4 -10 -9 -2 -57 33 -89 -81
-44 -158 39 -65 45 -69 63 -36 11 20 38 58 62 85 l42 47 -65 -9 c-36 -5 -65
-2 -65 7 0 10 8 17 18 17 21 0 52 117 36 133 -6 6 -20 -7 -32 -29z"/>
<path d="M2605 3534 c-43 -61 -44 -64 -9 -99 76 -76 136 15 78 119 -24 43 -24
43 -69 -20z"/>
<path d="M1130 3500 c-7 -11 -5 -21 4 -21 9 -1 -4 -10 -29 -20 -68 -27 -54
-60 23 -54 48 4 63 12 50 27 -10 13 -13 38 -6 55 13 36 -22 46 -42 13z"/>
<path d="M1096 3317 c10 -70 36 -74 49 -9 6 34 -1 52 -24 58 -26 6 -32 -3 -25
-49z"/>
<path d="M206 3090 c-26 -18 -40 -43 -33 -61 15 -38 144 -37 196 2 21 16 28
29 15 29 -12 0 -18 12 -13 26 15 38 -112 41 -165 4z"/>
<path d="M713 3087 c-31 -31 -8 -44 80 -44 58 0 84 7 67 17 -19 12 -13 19 22
25 31 6 20 11 -33 12 -45 2 -93 -8 -108 -22 -21 -20 -24 -20 -13 0 15 27 7 33
-15 12z"/>
<path d="M2810 2080 c-17 -28 8 -63 35 -47 14 9 17 1 8 -25 -12 -35 -11 -35
13 -5 24 32 28 32 50 0 20 -29 22 -29 10 5 -8 24 -5 34 7 26 11 -7 20 0 20 16
0 16 -9 22 -21 15 -42 -26 -115 -20 -104 8 12 31 0 36 -18 7z"/>
<path d="M2850 1820 c-7 -11 -7 -20 0 -20 6 0 0 -20 -13 -45 -33 -59 -39 -98
-13 -82 12 7 17 0 12 -15 -5 -15 -22 -28 -38 -28 -16 -1 -25 -16 -22 -37 4
-21 -2 -32 -13 -25 -13 8 -17 -6 -12 -35 5 -27 -4 -59 -20 -72 -16 -13 -23
-38 -16 -56 7 -18 4 -26 -8 -19 -11 7 -20 0 -20 -16 0 -16 7 -24 15 -19 8 5
21 0 28 -11 7 -11 21 -15 32 -9 10 6 13 20 7 31 -6 10 -22 13 -33 5 -14 -8
-16 -4 -8 10 8 13 23 18 33 12 28 -17 23 19 -6 50 -20 22 -20 24 3 11 18 -10
23 -8 15 5 -14 23 23 23 59 0 23 -15 48 0 48 28 0 10 -7 16 -15 15 -8 -2 -22
-1 -30 2 -8 3 -24 6 -35 8 -40 4 -19 42 23 42 24 0 47 11 52 24 5 15 -8 21
-33 16 -23 -4 -46 0 -51 9 -6 8 10 15 34 13 34 -1 44 8 41 38 -3 22 0 28 7 14
8 -20 16 -19 35 6 21 29 23 28 23 -7 0 -22 -8 -35 -18 -28 -11 6 -12 0 -3 -15
11 -18 8 -21 -10 -10 -17 11 -21 8 -12 -7 8 -13 24 -18 36 -11 12 8 17 2 11
-14 -5 -15 -21 -26 -34 -23 -13 4 -18 -3 -11 -15 7 -11 23 -14 36 -6 13 8 34
16 47 18 19 3 21 -9 9 -69 -1 -5 -15 3 -30 16 -31 25 -58 2 -36 -31 20 -28 63
-23 84 12 14 23 18 20 15 -14 -2 -24 -12 -38 -22 -32 -12 7 -12 1 -2 -16 13
-22 9 -22 -21 2 -21 17 -31 19 -23 6 9 -16 1 -21 -27 -16 -24 5 -36 0 -29 -12
16 -25 -50 -101 -74 -86 -10 6 -12 21 -6 34 7 13 -4 3 -25 -22 -21 -25 -44
-39 -52 -31 -25 25 -67 24 -67 -2 0 -14 21 -22 51 -20 29 3 52 7 52 9 0 2 45
7 100 10 55 3 102 7 105 10 3 3 21 6 40 8 71 6 87 31 52 83 -17 27 -25 49 -17
49 8 0 0 23 -18 50 -18 28 -28 50 -22 50 6 0 0 20 -13 45 -14 25 -27 56 -29
70 -2 13 -23 48 -46 77 -23 29 -37 60 -31 69 5 9 1 22 -9 28 -11 6 -25 3 -32
-9z m58 -123 c-12 -20 -70 -8 -66 14 10 59 24 69 49 35 14 -20 22 -42 17 -49z
m156 -357 c-2 -5 -22 -11 -44 -12 -22 -2 -42 -5 -45 -7 -3 -3 -29 -7 -59 -10
-51 -5 -52 -3 -20 39 34 45 92 61 77 20 -5 -13 3 -23 18 -23 15 0 23 7 17 16
-6 10 -4 27 4 40 13 21 61 -38 52 -63z"/>
<path d="M2798 1459 c-11 -61 -7 -96 10 -93 12 2 19 -9 16 -24 -5 -24 -1 -24
25 -3 17 15 29 41 26 59 -3 18 7 30 21 27 15 -4 21 4 14 15 -9 15 -21 16 -38
1 -17 -14 -32 -13 -48 3 -13 13 -25 20 -26 15z"/>
<path d="M2220 1999 c10 -18 14 -39 8 -45 -6 -6 3 -36 20 -67 17 -31 31 -45
31 -31 1 15 8 22 17 17 8 -6 15 6 15 26 0 25 -12 35 -35 30 -28 -5 -34 5 -28
49 4 35 -3 55 -20 55 -18 0 -20 -10 -8 -34z"/>
<path d="M2255 1789 c-7 -7 -7 -27 0 -44 8 -21 4 -27 -12 -17 -13 8 -22 8 -19
-2 2 -9 -7 -36 -20 -61 -14 -25 -20 -45 -14 -45 6 0 -2 -26 -19 -57 -16 -32
-24 -64 -17 -70 7 -7 1 -13 -14 -13 -15 0 -21 -6 -14 -12 7 -7 -4 -46 -24 -85
-43 -86 -33 -157 11 -81 23 39 27 41 22 9 -4 -32 8 -39 68 -41 58 -2 71 4 63
29 -6 21 0 19 22 -8 20 -24 32 -29 32 -12 0 21 6 21 33 -2 18 -15 36 -25 40
-22 4 3 9 4 12 3 42 -12 77 -11 86 4 7 11 1 17 -12 13 -13 -3 -29 8 -34 23 -7
19 -2 23 17 12 16 -9 21 -9 12 1 -30 33 -78 28 -65 -8 9 -27 6 -26 -18 4 -15
20 -24 49 -18 63 5 14 0 32 -12 39 -15 10 -19 -6 -11 -49 8 -43 4 -59 -11 -49
-12 7 -17 26 -11 42 7 16 3 24 -8 17 -11 -7 -15 3 -8 24 10 31 8 32 -12 6 -20
-27 -22 -27 -14 0 5 17 0 47 -11 67 -13 27 -12 34 3 24 12 -7 22 -4 22 7 0 31
-36 45 -47 17 -7 -18 -10 -18 -11 -1 -1 13 7 29 18 36 11 7 20 23 20 36 0 15
-9 13 -22 -6 -18 -25 -20 -24 -10 6 8 24 4 31 -11 22 -15 -9 -18 -5 -7 12 11
18 8 21 -10 10 -17 -11 -21 -8 -12 7 8 13 25 18 37 10 14 -9 17 -2 10 18 -16
41 35 88 56 53 9 -14 7 -19 -4 -12 -12 7 -19 -24 -18 -75 0 -48 8 -83 16 -78
9 6 15 3 13 -7 -10 -57 4 -72 34 -35 28 35 30 35 20 3 -8 -25 -4 -32 13 -22
14 8 18 7 10 -2 -8 -9 -1 -39 17 -66 18 -27 22 -43 10 -35 -12 7 -22 4 -22 -7
0 -29 35 -46 50 -23 6 11 1 41 -13 66 -14 25 -23 53 -20 63 2 9 -11 34 -29 55
-19 20 -29 43 -21 50 7 7 3 24 -8 38 -11 14 -24 46 -29 71 -10 52 -56 105 -75
87z m-27 -252 c-5 -9 4 -37 21 -63 17 -26 26 -52 19 -59 -6 -6 4 -37 23 -68
23 -40 24 -46 3 -21 -29 35 -31 35 -44 -6 -13 -41 -15 -41 -43 -6 -24 28 -28
29 -21 4 6 -17 -1 -31 -15 -31 -14 0 -24 14 -23 31 1 18 -9 30 -23 27 -18 -4
-13 19 14 72 21 43 34 84 27 91 -7 6 -2 12 11 12 13 0 22 7 21 15 -8 50 3 74
21 46 10 -16 14 -36 9 -44z"/>
<path d="M2172 1444 c-19 -37 -23 -67 -11 -85 16 -25 18 -25 19 0 0 21 8 18
30 -10 29 -38 30 -38 17 -1 -9 24 -6 34 6 26 12 -7 18 7 16 32 -2 24 -15 41
-29 38 -15 -3 -20 6 -13 25 20 52 -4 35 -35 -25z"/>
<path d="M4192 2252 c9 -22 1 -28 -29 -23 -28 6 -37 0 -30 -20 8 -20 -2 -25
-34 -19 -24 5 -38 2 -30 -6 8 -8 33 -14 56 -14 23 0 45 -10 49 -22 5 -14 -22
-20 -74 -18 -44 2 -75 -2 -69 -8 7 -7 22 -12 34 -12 12 0 26 -13 31 -28 5 -16
0 -22 -12 -14 -12 7 -27 3 -34 -8 -7 -12 -1 -19 14 -15 14 3 26 -12 26 -33 0
-22 16 -41 38 -44 28 -4 31 1 15 17 -27 27 -30 57 -5 50 10 -3 18 4 18 15 0
11 -9 17 -20 14 -11 -3 -16 6 -11 20 4 14 18 26 30 26 46 0 84 136 44 160 -10
7 -13 -2 -7 -18z"/>
<path d="M4122 1832 c-16 -19 -17 -33 -3 -41 12 -8 21 -23 21 -35 0 -13 -10
-12 -29 3 -24 20 -27 16 -19 -29 7 -38 2 -49 -14 -39 -15 9 -19 7 -11 -7 8
-11 4 -27 -7 -34 -11 -7 -15 -21 -9 -31 6 -11 4 -30 -4 -44 -25 -39 -21 -128
5 -128 14 0 19 14 12 31 -10 28 -7 29 24 3 22 -18 84 -30 162 -32 129 -2 147
13 94 76 -13 16 -19 33 -14 39 6 5 -8 26 -30 46 -22 20 -40 29 -40 20 0 -9
-18 0 -40 20 -23 21 -40 26 -40 13 0 -34 9 -53 22 -49 29 10 141 -130 117
-145 -16 -9 -20 -7 -12 7 9 14 -1 19 -27 14 -27 -5 -37 0 -29 16 7 13 -1 8
-18 -12 -19 -24 -34 -29 -42 -15 -8 12 -24 16 -35 8 -13 -8 -16 -4 -9 9 9 14
-1 19 -27 14 -26 -5 -36 0 -27 14 7 12 4 17 -7 10 -10 -7 -19 0 -19 15 0 35
41 28 89 -15 63 -57 75 -38 15 25 -32 33 -64 55 -73 50 -8 -5 -22 1 -30 14 -9
15 -6 18 9 9 13 -8 23 -8 21 2 -7 40 4 49 32 26 34 -28 41 1 8 34 -15 15 -15
25 0 35 12 7 22 6 22 -3 0 -9 10 -2 21 14 17 25 20 23 15 -10 -4 -25 4 -38 20
-35 15 4 22 -3 15 -13 -6 -11 -3 -25 7 -31 49 -30 36 34 -19 97 -34 38 -60 76
-59 83 7 27 -16 28 -38 1z"/>
<path d="M4159 1595 c37 -41 73 -70 78 -65 5 5 24 -1 41 -15 18 -13 10 1 -16
31 -27 29 -53 49 -59 44 -5 -6 -33 10 -62 35 -28 24 -20 11 18 -30z"/>
<path d="M3557 2172 c-5 -4 -9 -112 -3 -112 3 0 18 26 34 57 26 49 9 80 -31
55z"/>
<path d="M3475 2043 c8 -20 4 -25 -13 -14 -19 11 -19 5 1 -26 22 -35 29 -37
43 -12 9 16 26 24 38 16 14 -8 16 -4 8 10 -8 13 -25 18 -37 10 -13 -8 -17 -2
-10 16 6 18 0 30 -15 30 -15 0 -21 -12 -15 -30z"/>
<path d="M3495 1823 c8 -19 4 -25 -12 -15 -13 8 -22 8 -19 -2 2 -9 -6 -35 -19
-58 -13 -24 -18 -48 -11 -55 6 -7 1 -25 -12 -41 -16 -19 -17 -33 -3 -41 28
-18 27 -52 -1 -46 -13 3 -26 -11 -30 -30 -5 -19 -11 -46 -14 -60 -3 -14 -12
-36 -20 -49 -23 -36 18 -50 47 -15 22 27 29 27 60 -2 21 -19 40 -24 47 -12 7
12 31 17 52 13 49 -9 52 16 6 53 -29 23 -32 23 -22 -5 8 -19 1 -31 -15 -31
-15 0 -22 8 -16 17 6 10 0 30 -12 45 -17 21 -17 31 1 42 17 11 19 7 7 -13 -13
-22 -9 -22 21 2 30 24 34 24 21 2 -11 -19 -10 -24 5 -15 12 8 20 32 18 55 -2
36 -5 37 -26 8 -27 -36 -60 -6 -36 33 9 15 5 18 -12 7 -18 -11 -21 -8 -10 10
9 15 8 21 -2 15 -10 -6 -19 20 -20 59 -2 45 3 61 14 43 20 -32 62 -36 83 -8 9
12 11 -8 5 -43 -6 -38 -1 -69 13 -78 16 -10 20 -4 11 18 -7 18 -1 39 12 47 13
7 18 6 10 -2 -8 -9 -6 -32 4 -51 10 -19 13 -41 6 -48 -22 -21 -21 -91 1 -78
11 7 13 2 3 -14 -12 -19 -8 -22 12 -10 23 13 23 11 3 -11 -38 -41 -30 -55 33
-52 57 2 79 63 22 63 -15 0 -31 13 -36 28 -6 19 -1 22 18 11 24 -14 24 -12 1
17 -16 19 -21 34 -13 34 8 0 0 23 -18 50 -18 28 -27 50 -20 50 7 0 -10 30 -39
68 -28 37 -45 74 -37 83 8 8 1 8 -14 -1 -21 -12 -26 -8 -17 13 6 18 0 30 -15
30 -15 0 -21 -12 -15 -30z m-39 -178 c-3 -8 6 -35 20 -59 16 -29 17 -48 4 -56
-11 -7 -15 -21 -9 -31 33 -55 28 -104 -8 -72 -32 30 -38 29 -72 -2 -26 -25
-31 -26 -19 -5 17 30 29 70 33 114 1 13 9 20 17 15 26 -16 43 31 20 59 -12 14
-16 32 -8 39 17 17 27 17 22 -2z"/>
<path d="M4654 2194 c-17 -46 44 -80 96 -54 6 3 19 6 30 8 11 1 20 9 20 17 0
61 -1 64 -19 36 -25 -39 -78 -43 -98 -7 -15 27 -18 27 -29 0z"/>
<path d="M4751 2102 c-7 -11 -30 -16 -53 -12 -35 7 -37 3 -17 -21 18 -21 31
-24 50 -8 15 13 30 14 37 2 12 -20 -44 -53 -77 -45 -11 3 -3 -14 18 -37 38
-42 55 -40 64 5 2 13 9 44 15 69 10 46 -16 80 -37 47z"/>
<path d="M5307 2196 c-5 -9 -18 -12 -27 -6 -9 6 -23 1 -30 -11 -9 -14 -24 -13
-47 5 -37 29 -10 -13 60 -94 19 -22 35 -49 36 -60 0 -11 12 -20 26 -21 14 0
22 -13 19 -27 -3 -14 6 -22 20 -17 14 5 26 21 27 37 0 15 5 37 11 48 30 56
-40 121 -73 68 -14 -22 -49 -4 -49 24 0 11 8 15 19 9 10 -6 24 -3 30 7 7 11
28 16 48 13 20 -4 36 3 36 17 0 27 -90 33 -106 8z m-38 -37 c-17 -29 30 -82
58 -64 56 35 78 12 52 -55 -2 -5 -2 -18 0 -28 2 -10 -9 -8 -25 4 -15 13 -34
19 -41 14 -7 -6 -8 -4 -3 4 6 7 -9 33 -32 58 -36 38 -39 88 -6 88 6 0 5 -9 -3
-21z"/>
<path d="M5378 1873 c-2 -7 -5 -31 -8 -53 -3 -22 -7 -42 -10 -45 -2 -3 -7 -60
-10 -128 l-6 -124 58 5 c31 2 62 9 68 16 7 6 49 8 95 3 l83 -8 -48 51 c-26 27
-39 50 -30 50 10 0 -11 30 -46 66 -36 37 -60 71 -54 77 5 6 -13 31 -40 57 -28
26 -51 41 -52 33z m72 -90 c-6 -6 18 -40 54 -77 35 -36 56 -66 47 -66 -10 0
-2 -17 16 -37 32 -35 31 -37 -22 -33 -30 2 -64 -1 -75 -8 -84 -47 -148 105
-87 208 6 11 9 37 6 57 -6 35 -4 35 33 2 21 -20 34 -40 28 -46z"/>
<path d="M5407 1804 c8 -11 6 -26 -3 -31 -34 -21 -15 -199 21 -204 19 -3 40 2
45 12 6 9 29 13 52 9 34 -7 37 -3 17 21 -13 16 -17 29 -8 29 9 0 -12 30 -47
66 -36 37 -59 72 -53 78 6 7 1 19 -13 27 -15 9 -19 7 -11 -7z m106 -173 c0
-16 -5 -28 -11 -28 -7 1 -16 0 -22 -2 -60 -24 -71 -13 -71 71 l0 87 52 -50
c29 -28 52 -63 52 -78z"/>
<path d="M5429 1671 c3 -64 20 -79 48 -45 18 22 14 36 -14 61 -35 32 -37 31
-34 -16z"/>
<path d="M3114 2049 l-74 -150 44 -85 c24 -46 45 -88 46 -94 12 -71 102 -219
105 -175 2 14 12 61 24 105 12 44 26 97 31 117 5 21 23 60 40 86 30 45 -47
243 -128 332 -7 8 -47 -53 -88 -136z"/>
<path d="M947 1614 c7 -21 4 -31 -7 -24 -10 6 -32 -20 -48 -59 -17 -39 -39
-71 -50 -71 -12 0 -15 -15 -8 -33 9 -23 5 -29 -10 -19 -16 9 -19 3 -10 -20 7
-20 5 -30 -6 -23 -11 7 -21 -6 -23 -29 -3 -39 -2 -40 28 -3 22 26 28 28 21 6
-7 -22 4 -31 36 -31 26 0 42 10 37 23 -5 12 6 22 23 22 17 0 28 -10 23 -23 -5
-13 3 -23 18 -23 20 0 22 9 7 37 -11 20 -29 32 -39 25 -10 -6 -19 0 -19 15 -1
19 -6 18 -20 -4 -17 -27 -19 -27 -20 0 -1 27 -3 27 -22 0 -19 -27 -20 -27 -12
0 5 17 20 28 33 24 16 -3 20 10 11 40 -10 37 -8 40 10 16 18 -24 20 -20 10 20
l-12 50 32 -50 32 -50 -11 60 c-9 44 -7 52 8 30 18 -27 21 -27 22 0 1 17 19
-9 40 -56 21 -48 48 -81 59 -74 11 7 20 3 20 -8 0 -45 -42 -41 -63 7 -17 38
-28 45 -40 27 -9 -15 -17 -17 -17 -4 0 12 -13 21 -30 21 -42 0 -38 -32 5 -35
19 -2 43 -1 52 0 10 2 12 -11 6 -28 -8 -21 -5 -27 11 -18 14 9 19 4 12 -15 -8
-20 2 -29 34 -29 32 0 42 9 34 29 -7 19 -2 24 13 15 17 -11 18 0 1 42 -11 31
-25 87 -30 125 -5 37 -13 73 -19 79 -19 18 -69 19 -69 0 0 -10 12 -18 27 -18
17 0 28 -25 29 -65 1 -53 -2 -58 -18 -30 -11 19 -17 42 -13 50 4 8 -15 38 -42
65 -36 37 -46 41 -36 14z"/>
<path d="M1322 1986 c-47 -79 -98 -154 -113 -167 -21 -17 -23 -33 -7 -63 21
-39 61 -170 87 -285 13 -56 19 -49 119 140 69 131 99 209 89 229 -9 17 -32 89
-53 160 l-36 130 -86 -144z"/>
<path d="M343 2015 c2 -138 20 -197 52 -171 28 23 29 21 7 -21 -14 -25 -21
-51 -15 -56 5 -6 15 9 23 32 7 23 21 36 31 30 10 -6 13 4 5 23 -8 22 -5 30 8
22 12 -8 26 3 31 23 6 22 -1 36 -18 36 -15 0 -27 -9 -27 -21 0 -12 -9 -8 -20
8 -16 25 -20 23 -21 -10 -1 -36 -3 -35 -20 7 -11 25 -13 68 -7 95 7 28 4 48
-9 48 -11 0 -20 -20 -20 -45z"/>
<path d="M4746 1815 c-3 -45 -20 -125 -26 -125 -2 0 -7 -22 -11 -50 -23 -155
-23 -173 3 -173 14 0 24 9 22 21 -2 12 10 18 26 14 121 -32 254 -12 217 32
-14 16 -27 44 -30 61 -2 17 -13 36 -23 43 -10 7 -24 31 -31 53 -24 77 -145
178 -147 124z m65 -87 c-26 -19 -27 -26 -4 -45 15 -13 31 -18 36 -13 6 5 31
-13 57 -40 26 -28 40 -50 30 -50 -9 0 -1 -16 17 -37 34 -37 -143 -54 -180 -17
-7 8 -25 4 -39 -8 -21 -17 -24 -12 -16 25 6 26 14 70 18 97 3 28 8 50 10 50 4
0 22 74 25 105 1 17 13 15 40 -9 34 -31 34 -37 6 -58z"/>
<path d="M4758 1698 c-14 -57 -6 -123 18 -143 39 -32 170 -37 144 -5 -11 13
-15 28 -10 34 6 5 -8 26 -30 46 -22 20 -40 29 -40 20 0 -9 -18 0 -40 20 -22
20 -41 33 -42 28z m82 -67 c0 26 47 -27 52 -58 4 -28 -78 -34 -105 -6 -39 38
-23 115 16 80 20 -18 37 -26 37 -16z"/>
<path d="M1640 1579 c0 -12 -9 -16 -19 -10 -29 19 -69 -69 -44 -94 15 -15 25
-12 34 12 7 18 19 29 26 25 7 -5 14 13 16 40 1 26 -1 48 -5 48 -4 0 -8 -10 -8
-21z"/>
<path d="M694 4005 c-34 -66 31 -185 103 -185 66 0 223 131 223 187 0 31 -90
-23 -133 -80 -61 -79 -107 -87 -107 -18 0 61 -65 135 -86 96z"/>
<path d="M1147 3978 c8 -27 19 -73 26 -103 26 -119 287 -2 287 129 0 32 -78
-24 -133 -96 l-54 -71 -41 86 c-47 95 -107 135 -85 55z"/>
<path d="M1620 3995 c0 -76 68 -195 111 -195 45 0 200 183 176 207 -21 21 -70
-14 -117 -83 l-49 -72 -30 72 c-29 70 -91 118 -91 71z"/>
<path d="M2540 4007 c0 -32 105 -206 119 -198 33 21 118 190 101 201 -10 6
-40 -13 -67 -42 -47 -51 -49 -51 -62 -13 -10 34 -91 80 -91 52z"/>
<path d="M3913 4005 c-22 -36 65 -105 133 -105 64 0 116 71 79 108 -17 17 -65
-12 -65 -40 0 -32 -32 -37 -50 -8 -19 31 -86 62 -97 45z"/>
<path d="M4380 3992 c0 -16 9 -35 20 -42 47 -29 -10 -50 -134 -50 -153 0 -210
-40 -151 -105 51 -57 335 -51 367 8 18 35 17 46 -10 61 -51 28 -37 56 27 56
39 0 67 14 80 39 28 52 -6 71 -49 28 -31 -31 -37 -31 -92 1 -50 29 -58 30 -58
4z"/>
<path d="M32 3974 c-20 -15 -33 -42 -29 -62 6 -29 16 -25 66 27 61 63 35 88
-37 35z"/>
<path d="M5975 3925 c-5 -41 -2 -84 8 -94 10 -11 17 21 17 75 0 113 -12 122
-25 19z"/>
<path d="M5860 3930 c26 -27 54 -50 63 -50 10 0 17 23 17 50 0 43 -9 50 -63
50 l-64 0 47 -50z"/>
<path d="M1305 3770 c-58 -65 -11 -86 170 -75 l173 11 -39 -61 c-21 -34 -69
-94 -105 -134 l-66 -72 51 -128 c28 -70 51 -138 51 -149 0 -73 119 -18 180 83
36 58 83 125 106 151 39 42 40 49 11 100 -18 29 -43 88 -56 129 -19 60 -34 75
-73 75 -42 0 -47 7 -36 50 l12 50 -177 -1 c-126 0 -184 -9 -202 -29z m293 -18
c-19 -17 -238 -27 -238 -10 0 10 56 18 123 18 68 0 120 -3 115 -8z m158 -196
l44 -103 -85 -125 c-95 -139 -92 -139 -151 8 l-43 106 85 108 c104 132 97 132
150 6z"/>
<path d="M1603 3494 c-23 -26 -43 -51 -43 -56 0 -8 130 -8 183 0 7 1 3 24 -10
52 -29 62 -73 64 -130 4z"/>
<path d="M5937 3705 c-54 -12 -60 -166 -8 -209 60 -51 63 -47 60 84 -3 133 -5
136 -52 125z"/>
<path d="M642 3489 c-64 -73 -69 -86 -62 -169 6 -75 13 -74 102 22 66 71 77
94 60 122 -12 19 -16 48 -10 65 21 54 -26 33 -90 -40z"/>
<path d="M5522 77 c11 -20 26 -38 34 -38 8 -1 37 -6 64 -11 37 -6 42 -3 21 11
-16 10 -39 13 -50 6 -12 -6 -14 -3 -4 7 9 10 25 18 35 18 56 0 7 40 -51 42
-61 1 -67 -3 -49 -35z"/>
<path d="M5847 45 c0 -35 136 -26 148 11 7 19 -13 25 -70 21 -51 -3 -78 -14
-78 -32z"/>
</g>
</svg>
